<svg xmlns="http://www.w3.org/2000/svg" viewBox="0 0 1808 280" width="1808" height="280" shape-rendering="crispEdges"><rect width="1808" height="280" fill="#fafbfe"/><ellipse cx="112" cy="217.28" rx="53.76" ry="8.4" fill="rgba(0,0,0,0.22)"/><rect x="70" y="56" width="14" height="14" fill="#1a1a2e"/><rect x="84" y="56" width="14" height="14" fill="#1a1a2e"/><rect x="98" y="56" width="14" height="14" fill="#1a1a2e"/><rect x="112" y="56" width="14" height="14" fill="#1a1a2e"/><rect x="126" y="56" width="14" height="14" fill="#1a1a2e"/><rect x="140" y="56" width="14" height="14" fill="#1a1a2e"/><rect x="56" y="70" width="14" height="14" fill="#1a1a2e"/><rect x="70" y="70" width="14" height="14" fill="#c5ecf7"/><rect x="84" y="70" width="14" height="14" fill="#9fe0f5"/><rect x="98" y="70" width="14" height="14" fill="#9fe0f5"/><rect x="112" y="70" width="14" height="14" fill="#9fe0f5"/><rect x="126" y="70" width="14" height="14" fill="#9fe0f5"/><rect x="140" y="70" width="14" height="14" fill="#6cc0e8"/><rect x="154" y="70" width="14" height="14" fill="#1a1a2e"/><rect x="42" y="84" width="14" height="14" fill="#1a1a2e"/><rect x="56" y="84" width="14" height="14" fill="#c5ecf7"/><rect x="70" y="84" width="14" height="14" fill="#9fe0f5"/><rect x="84" y="84" width="14" height="14" fill="#9fe0f5"/><rect x="98" y="84" width="14" height="14" fill="#9fe0f5"/><rect x="112" y="84" width="14" height="14" fill="#9fe0f5"/><rect x="126" y="84" width="14" height="14" fill="#9fe0f5"/><rect x="140" y="84" width="14" height="14" fill="#9fe0f5"/><rect x="154" y="84" width="14" height="14" fill="#6cc0e8"/><rect x="168" y="84" width="14" height="14" fill="#1a1a2e"/><rect x="42" y="98" width="14" height="14" fill="#1a1a2e"/><rect x="56" y="98" width="14" height="14" fill="#9fe0f5"/><rect x="70" y="98" width="14" height="14" fill="#9fe0f5"/><rect x="84" y="98" width="14" height="14" fill="#9fe0f5"/><rect x="98" y="98" width="14" height="14" fill="#9fe0f5"/><rect x="112" y="98" width="14" height="14" fill="#9fe0f5"/><rect x="126" y="98" width="14" height="14" fill="#9fe0f5"/><rect x="140" y="98" width="14" height="14" fill="#9fe0f5"/><rect x="154" y="98" width="14" height="14" fill="#9fe0f5"/><rect x="168" y="98" width="14" height="14" fill="#1a1a2e"/><rect x="42" y="112" width="14" height="14" fill="#1a1a2e"/><rect x="56" y="112" width="14" height="14" fill="#9fe0f5"/><rect x="70" y="112" width="14" height="14" fill="#9fe0f5"/><rect x="84" y="112" width="14" height="14" fill="#9fe0f5"/><rect x="98" y="112" width="14" height="14" fill="#9fe0f5"/><rect x="112" y="112" width="14" height="14" fill="#9fe0f5"/><rect x="126" y="112" width="14" height="14" fill="#9fe0f5"/><rect x="140" y="112" width="14" height="14" fill="#9fe0f5"/><rect x="154" y="112" width="14" height="14" fill="#9fe0f5"/><rect x="168" y="112" width="14" height="14" fill="#1a1a2e"/><rect x="42" y="126" width="14" height="14" fill="#1a1a2e"/><rect x="56" y="126" width="14" height="14" fill="#9fe0f5"/><rect x="70" y="126" width="14" height="14" fill="#9fe0f5"/><rect x="84" y="126" width="14" height="14" fill="#9fe0f5"/><rect x="98" y="126" width="14" height="14" fill="#9fe0f5"/><rect x="112" y="126" width="14" height="14" fill="#9fe0f5"/><rect x="126" y="126" width="14" height="14" fill="#9fe0f5"/><rect x="140" y="126" width="14" height="14" fill="#9fe0f5"/><rect x="154" y="126" width="14" height="14" fill="#9fe0f5"/><rect x="168" y="126" width="14" height="14" fill="#1a1a2e"/><rect x="42" y="140" width="14" height="14" fill="#1a1a2e"/><rect x="56" y="140" width="14" height="14" fill="#9fe0f5"/><rect x="70" y="140" width="14" height="14" fill="#9fe0f5"/><rect x="84" y="140" width="14" height="14" fill="#9fe0f5"/><rect x="98" y="140" width="14" height="14" fill="#9fe0f5"/><rect x="112" y="140" width="14" height="14" fill="#9fe0f5"/><rect x="126" y="140" width="14" height="14" fill="#9fe0f5"/><rect x="140" y="140" width="14" height="14" fill="#9fe0f5"/><rect x="154" y="140" width="14" height="14" fill="#9fe0f5"/><rect x="168" y="140" width="14" height="14" fill="#1a1a2e"/><rect x="42" y="154" width="14" height="14" fill="#1a1a2e"/><rect x="56" y="154" width="14" height="14" fill="#6cc0e8"/><rect x="70" y="154" width="14" height="14" fill="#9fe0f5"/><rect x="84" y="154" width="14" height="14" fill="#9fe0f5"/><rect x="98" y="154" width="14" height="14" fill="#9fe0f5"/><rect x="112" y="154" width="14" height="14" fill="#9fe0f5"/><rect x="126" y="154" width="14" height="14" fill="#9fe0f5"/><rect x="140" y="154" width="14" height="14" fill="#9fe0f5"/><rect x="154" y="154" width="14" height="14" fill="#6cc0e8"/><rect x="168" y="154" width="14" height="14" fill="#1a1a2e"/><rect x="56" y="168" width="14" height="14" fill="#1a1a2e"/><rect x="70" y="168" width="14" height="14" fill="#6cc0e8"/><rect x="84" y="168" width="14" height="14" fill="#9fe0f5"/><rect x="98" y="168" width="14" height="14" fill="#9fe0f5"/><rect x="112" y="168" width="14" height="14" fill="#9fe0f5"/><rect x="126" y="168" width="14" height="14" fill="#9fe0f5"/><rect x="140" y="168" width="14" height="14" fill="#6cc0e8"/><rect x="154" y="168" width="14" height="14" fill="#1a1a2e"/><rect x="70" y="182" width="14" height="14" fill="#1a1a2e"/><rect x="84" y="182" width="14" height="14" fill="#6cc0e8"/><rect x="98" y="182" width="14" height="14" fill="#6cc0e8"/><rect x="112" y="182" width="14" height="14" fill="#6cc0e8"/><rect x="126" y="182" width="14" height="14" fill="#6cc0e8"/><rect x="140" y="182" width="14" height="14" fill="#1a1a2e"/><rect x="84" y="196" width="14" height="14" fill="#1a1a2e"/><rect x="98" y="196" width="14" height="14" fill="#1a1a2e"/><rect x="112" y="196" width="14" height="14" fill="#1a1a2e"/><rect x="126" y="196" width="14" height="14" fill="#1a1a2e"/><rect x="70" y="98" width="14" height="14" fill="#fffdf5"/><rect x="84" y="98" width="14" height="14" fill="#fffdf5"/><rect x="70" y="112" width="14" height="14" fill="#fffdf5"/><rect x="84" y="112" width="14" height="14" fill="#fffdf5"/><rect x="84" y="112" width="14" height="14" fill="#1a1a2e"/><rect x="126" y="98" width="14" height="14" fill="#fffdf5"/><rect x="140" y="98" width="14" height="14" fill="#fffdf5"/><rect x="126" y="112" width="14" height="14" fill="#fffdf5"/><rect x="140" y="112" width="14" height="14" fill="#fffdf5"/><rect x="126" y="112" width="14" height="14" fill="#1a1a2e"/><rect x="56" y="126" width="14" height="14" fill="#ffb5c5"/><rect x="154" y="126" width="14" height="14" fill="#ffb5c5"/><rect x="98" y="140" width="14" height="14" fill="#1a1a2e"/><rect x="112" y="140" width="14" height="14" fill="#1a1a2e"/><text x="112" y="246.4" text-anchor="middle" font-family="ui-monospace, SFMono-Regular, Menlo, monospace" font-size="14" fill="#555">Dot</text><ellipse cx="376" cy="217.28" rx="53.76" ry="8.4" fill="rgba(0,0,0,0.22)"/><rect x="334" y="56" width="14" height="14" fill="#1a1a2e"/><rect x="348" y="56" width="14" height="14" fill="#1a1a2e"/><rect x="362" y="56" width="14" height="14" fill="#1a1a2e"/><rect x="376" y="56" width="14" height="14" fill="#1a1a2e"/><rect x="390" y="56" width="14" height="14" fill="#1a1a2e"/><rect x="404" y="56" width="14" height="14" fill="#1a1a2e"/><rect x="320" y="70" width="14" height="14" fill="#1a1a2e"/><rect x="334" y="70" width="14" height="14" fill="#cfc8e6"/><rect x="348" y="70" width="14" height="14" fill="#a79dd3"/><rect x="362" y="70" width="14" height="14" fill="#a79dd3"/><rect x="376" y="70" width="14" height="14" fill="#a79dd3"/><rect x="390" y="70" width="14" height="14" fill="#a79dd3"/><rect x="404" y="70" width="14" height="14" fill="#6e649f"/><rect x="418" y="70" width="14" height="14" fill="#1a1a2e"/><rect x="306" y="84" width="14" height="14" fill="#1a1a2e"/><rect x="320" y="84" width="14" height="14" fill="#cfc8e6"/><rect x="334" y="84" width="14" height="14" fill="#a79dd3"/><rect x="348" y="84" width="14" height="14" fill="#a79dd3"/><rect x="362" y="84" width="14" height="14" fill="#a79dd3"/><rect x="376" y="84" width="14" height="14" fill="#a79dd3"/><rect x="390" y="84" width="14" height="14" fill="#a79dd3"/><rect x="404" y="84" width="14" height="14" fill="#a79dd3"/><rect x="418" y="84" width="14" height="14" fill="#6e649f"/><rect x="432" y="84" width="14" height="14" fill="#1a1a2e"/><rect x="306" y="98" width="14" height="14" fill="#1a1a2e"/><rect x="320" y="98" width="14" height="14" fill="#a79dd3"/><rect x="334" y="98" width="14" height="14" fill="#a79dd3"/><rect x="348" y="98" width="14" height="14" fill="#a79dd3"/><rect x="362" y="98" width="14" height="14" fill="#a79dd3"/><rect x="376" y="98" width="14" height="14" fill="#a79dd3"/><rect x="390" y="98" width="14" height="14" fill="#a79dd3"/><rect x="404" y="98" width="14" height="14" fill="#a79dd3"/><rect x="418" y="98" width="14" height="14" fill="#a79dd3"/><rect x="432" y="98" width="14" height="14" fill="#1a1a2e"/><rect x="306" y="112" width="14" height="14" fill="#1a1a2e"/><rect x="320" y="112" width="14" height="14" fill="#a79dd3"/><rect x="334" y="112" width="14" height="14" fill="#a79dd3"/><rect x="348" y="112" width="14" height="14" fill="#a79dd3"/><rect x="362" y="112" width="14" height="14" fill="#a79dd3"/><rect x="376" y="112" width="14" height="14" fill="#a79dd3"/><rect x="390" y="112" width="14" height="14" fill="#a79dd3"/><rect x="404" y="112" width="14" height="14" fill="#a79dd3"/><rect x="418" y="112" width="14" height="14" fill="#a79dd3"/><rect x="432" y="112" width="14" height="14" fill="#1a1a2e"/><rect x="306" y="126" width="14" height="14" fill="#1a1a2e"/><rect x="320" y="126" width="14" height="14" fill="#a79dd3"/><rect x="334" y="126" width="14" height="14" fill="#a79dd3"/><rect x="348" y="126" width="14" height="14" fill="#a79dd3"/><rect x="362" y="126" width="14" height="14" fill="#a79dd3"/><rect x="376" y="126" width="14" height="14" fill="#a79dd3"/><rect x="390" y="126" width="14" height="14" fill="#a79dd3"/><rect x="404" y="126" width="14" height="14" fill="#a79dd3"/><rect x="418" y="126" width="14" height="14" fill="#a79dd3"/><rect x="432" y="126" width="14" height="14" fill="#1a1a2e"/><rect x="306" y="140" width="14" height="14" fill="#1a1a2e"/><rect x="320" y="140" width="14" height="14" fill="#a79dd3"/><rect x="334" y="140" width="14" height="14" fill="#a79dd3"/><rect x="348" y="140" width="14" height="14" fill="#a79dd3"/><rect x="362" y="140" width="14" height="14" fill="#a79dd3"/><rect x="376" y="140" width="14" height="14" fill="#a79dd3"/><rect x="390" y="140" width="14" height="14" fill="#a79dd3"/><rect x="404" y="140" width="14" height="14" fill="#a79dd3"/><rect x="418" y="140" width="14" height="14" fill="#a79dd3"/><rect x="432" y="140" width="14" height="14" fill="#1a1a2e"/><rect x="306" y="154" width="14" height="14" fill="#1a1a2e"/><rect x="320" y="154" width="14" height="14" fill="#6e649f"/><rect x="334" y="154" width="14" height="14" fill="#a79dd3"/><rect x="348" y="154" width="14" height="14" fill="#a79dd3"/><rect x="362" y="154" width="14" height="14" fill="#a79dd3"/><rect x="376" y="154" width="14" height="14" fill="#a79dd3"/><rect x="390" y="154" width="14" height="14" fill="#a79dd3"/><rect x="404" y="154" width="14" height="14" fill="#a79dd3"/><rect x="418" y="154" width="14" height="14" fill="#6e649f"/><rect x="432" y="154" width="14" height="14" fill="#1a1a2e"/><rect x="320" y="168" width="14" height="14" fill="#1a1a2e"/><rect x="334" y="168" width="14" height="14" fill="#6e649f"/><rect x="348" y="168" width="14" height="14" fill="#a79dd3"/><rect x="362" y="168" width="14" height="14" fill="#a79dd3"/><rect x="376" y="168" width="14" height="14" fill="#a79dd3"/><rect x="390" y="168" width="14" height="14" fill="#a79dd3"/><rect x="404" y="168" width="14" height="14" fill="#6e649f"/><rect x="418" y="168" width="14" height="14" fill="#1a1a2e"/><rect x="334" y="182" width="14" height="14" fill="#1a1a2e"/><rect x="348" y="182" width="14" height="14" fill="#6e649f"/><rect x="362" y="182" width="14" height="14" fill="#6e649f"/><rect x="376" y="182" width="14" height="14" fill="#6e649f"/><rect x="390" y="182" width="14" height="14" fill="#6e649f"/><rect x="404" y="182" width="14" height="14" fill="#1a1a2e"/><rect x="348" y="196" width="14" height="14" fill="#1a1a2e"/><rect x="362" y="196" width="14" height="14" fill="#1a1a2e"/><rect x="376" y="196" width="14" height="14" fill="#1a1a2e"/><rect x="390" y="196" width="14" height="14" fill="#1a1a2e"/><rect x="334" y="98" width="14" height="14" fill="#fffdf5"/><rect x="348" y="98" width="14" height="14" fill="#fffdf5"/><rect x="334" y="112" width="14" height="14" fill="#fffdf5"/><rect x="348" y="112" width="14" height="14" fill="#fffdf5"/><rect x="348" y="112" width="14" height="14" fill="#1a1a2e"/><rect x="390" y="98" width="14" height="14" fill="#fffdf5"/><rect x="404" y="98" width="14" height="14" fill="#fffdf5"/><rect x="390" y="112" width="14" height="14" fill="#fffdf5"/><rect x="404" y="112" width="14" height="14" fill="#fffdf5"/><rect x="390" y="112" width="14" height="14" fill="#1a1a2e"/><rect x="320" y="126" width="14" height="14" fill="#ffb5c5"/><rect x="418" y="126" width="14" height="14" fill="#ffb5c5"/><rect x="362" y="140" width="14" height="14" fill="#1a1a2e"/><rect x="376" y="140" width="14" height="14" fill="#1a1a2e"/><text x="376" y="246.4" text-anchor="middle" font-family="ui-monospace, SFMono-Regular, Menlo, monospace" font-size="14" fill="#555">Sleepy Dot</text><ellipse cx="640" cy="217.28" rx="53.76" ry="8.4" fill="rgba(0,0,0,0.22)"/><rect x="598" y="56" width="14" height="14" fill="#1a1a2e"/><rect x="612" y="56" width="14" height="14" fill="#1a1a2e"/><rect x="626" y="56" width="14" height="14" fill="#1a1a2e"/><rect x="640" y="56" width="14" height="14" fill="#1a1a2e"/><rect x="654" y="56" width="14" height="14" fill="#1a1a2e"/><rect x="668" y="56" width="14" height="14" fill="#1a1a2e"/><rect x="584" y="70" width="14" height="14" fill="#1a1a2e"/><rect x="598" y="70" width="14" height="14" fill="#b0e6e6"/><rect x="612" y="70" width="14" height="14" fill="#74c5c5"/><rect x="626" y="70" width="14" height="14" fill="#74c5c5"/><rect x="640" y="70" width="14" height="14" fill="#74c5c5"/><rect x="654" y="70" width="14" height="14" fill="#74c5c5"/><rect x="668" y="70" width="14" height="14" fill="#3e9a9a"/><rect x="682" y="70" width="14" height="14" fill="#1a1a2e"/><rect x="570" y="84" width="14" height="14" fill="#1a1a2e"/><rect x="584" y="84" width="14" height="14" fill="#b0e6e6"/><rect x="598" y="84" width="14" height="14" fill="#74c5c5"/><rect x="612" y="84" width="14" height="14" fill="#74c5c5"/><rect x="626" y="84" width="14" height="14" fill="#74c5c5"/><rect x="640" y="84" width="14" height="14" fill="#74c5c5"/><rect x="654" y="84" width="14" height="14" fill="#74c5c5"/><rect x="668" y="84" width="14" height="14" fill="#74c5c5"/><rect x="682" y="84" width="14" height="14" fill="#3e9a9a"/><rect x="696" y="84" width="14" height="14" fill="#1a1a2e"/><rect x="570" y="98" width="14" height="14" fill="#1a1a2e"/><rect x="584" y="98" width="14" height="14" fill="#74c5c5"/><rect x="598" y="98" width="14" height="14" fill="#74c5c5"/><rect x="612" y="98" width="14" height="14" fill="#74c5c5"/><rect x="626" y="98" width="14" height="14" fill="#74c5c5"/><rect x="640" y="98" width="14" height="14" fill="#74c5c5"/><rect x="654" y="98" width="14" height="14" fill="#74c5c5"/><rect x="668" y="98" width="14" height="14" fill="#74c5c5"/><rect x="682" y="98" width="14" height="14" fill="#74c5c5"/><rect x="696" y="98" width="14" height="14" fill="#1a1a2e"/><rect x="570" y="112" width="14" height="14" fill="#1a1a2e"/><rect x="584" y="112" width="14" height="14" fill="#74c5c5"/><rect x="598" y="112" width="14" height="14" fill="#74c5c5"/><rect x="612" y="112" width="14" height="14" fill="#74c5c5"/><rect x="626" y="112" width="14" height="14" fill="#74c5c5"/><rect x="640" y="112" width="14" height="14" fill="#74c5c5"/><rect x="654" y="112" width="14" height="14" fill="#74c5c5"/><rect x="668" y="112" width="14" height="14" fill="#74c5c5"/><rect x="682" y="112" width="14" height="14" fill="#74c5c5"/><rect x="696" y="112" width="14" height="14" fill="#1a1a2e"/><rect x="570" y="126" width="14" height="14" fill="#1a1a2e"/><rect x="584" y="126" width="14" height="14" fill="#74c5c5"/><rect x="598" y="126" width="14" height="14" fill="#74c5c5"/><rect x="612" y="126" width="14" height="14" fill="#74c5c5"/><rect x="626" y="126" width="14" height="14" fill="#74c5c5"/><rect x="640" y="126" width="14" height="14" fill="#74c5c5"/><rect x="654" y="126" width="14" height="14" fill="#74c5c5"/><rect x="668" y="126" width="14" height="14" fill="#74c5c5"/><rect x="682" y="126" width="14" height="14" fill="#74c5c5"/><rect x="696" y="126" width="14" height="14" fill="#1a1a2e"/><rect x="570" y="140" width="14" height="14" fill="#1a1a2e"/><rect x="584" y="140" width="14" height="14" fill="#74c5c5"/><rect x="598" y="140" width="14" height="14" fill="#74c5c5"/><rect x="612" y="140" width="14" height="14" fill="#74c5c5"/><rect x="626" y="140" width="14" height="14" fill="#74c5c5"/><rect x="640" y="140" width="14" height="14" fill="#74c5c5"/><rect x="654" y="140" width="14" height="14" fill="#74c5c5"/><rect x="668" y="140" width="14" height="14" fill="#74c5c5"/><rect x="682" y="140" width="14" height="14" fill="#74c5c5"/><rect x="696" y="140" width="14" height="14" fill="#1a1a2e"/><rect x="570" y="154" width="14" height="14" fill="#1a1a2e"/><rect x="584" y="154" width="14" height="14" fill="#3e9a9a"/><rect x="598" y="154" width="14" height="14" fill="#74c5c5"/><rect x="612" y="154" width="14" height="14" fill="#74c5c5"/><rect x="626" y="154" width="14" height="14" fill="#74c5c5"/><rect x="640" y="154" width="14" height="14" fill="#74c5c5"/><rect x="654" y="154" width="14" height="14" fill="#74c5c5"/><rect x="668" y="154" width="14" height="14" fill="#74c5c5"/><rect x="682" y="154" width="14" height="14" fill="#3e9a9a"/><rect x="696" y="154" width="14" height="14" fill="#1a1a2e"/><rect x="584" y="168" width="14" height="14" fill="#1a1a2e"/><rect x="598" y="168" width="14" height="14" fill="#3e9a9a"/><rect x="612" y="168" width="14" height="14" fill="#74c5c5"/><rect x="626" y="168" width="14" height="14" fill="#74c5c5"/><rect x="640" y="168" width="14" height="14" fill="#74c5c5"/><rect x="654" y="168" width="14" height="14" fill="#74c5c5"/><rect x="668" y="168" width="14" height="14" fill="#3e9a9a"/><rect x="682" y="168" width="14" height="14" fill="#1a1a2e"/><rect x="598" y="182" width="14" height="14" fill="#1a1a2e"/><rect x="612" y="182" width="14" height="14" fill="#3e9a9a"/><rect x="626" y="182" width="14" height="14" fill="#3e9a9a"/><rect x="640" y="182" width="14" height="14" fill="#3e9a9a"/><rect x="654" y="182" width="14" height="14" fill="#3e9a9a"/><rect x="668" y="182" width="14" height="14" fill="#1a1a2e"/><rect x="612" y="196" width="14" height="14" fill="#1a1a2e"/><rect x="626" y="196" width="14" height="14" fill="#1a1a2e"/><rect x="640" y="196" width="14" height="14" fill="#1a1a2e"/><rect x="654" y="196" width="14" height="14" fill="#1a1a2e"/><rect x="598" y="98" width="14" height="14" fill="#fffdf5"/><rect x="612" y="98" width="14" height="14" fill="#fffdf5"/><rect x="598" y="112" width="14" height="14" fill="#fffdf5"/><rect x="612" y="112" width="14" height="14" fill="#fffdf5"/><rect x="612" y="112" width="14" height="14" fill="#1a1a2e"/><rect x="654" y="98" width="14" height="14" fill="#fffdf5"/><rect x="668" y="98" width="14" height="14" fill="#fffdf5"/><rect x="654" y="112" width="14" height="14" fill="#fffdf5"/><rect x="668" y="112" width="14" height="14" fill="#fffdf5"/><rect x="654" y="112" width="14" height="14" fill="#1a1a2e"/><rect x="584" y="126" width="14" height="14" fill="#ffb5c5"/><rect x="682" y="126" width="14" height="14" fill="#ffb5c5"/><rect x="626" y="140" width="14" height="14" fill="#1a1a2e"/><rect x="640" y="140" width="14" height="14" fill="#1a1a2e"/><text x="640" y="246.4" text-anchor="middle" font-family="ui-monospace, SFMono-Regular, Menlo, monospace" font-size="14" fill="#555">Focused Dot</text><ellipse cx="904" cy="217.28" rx="53.76" ry="8.4" fill="rgba(0,0,0,0.22)"/><rect x="862" y="56" width="14" height="14" fill="#1a1a2e"/><rect x="876" y="56" width="14" height="14" fill="#1a1a2e"/><rect x="890" y="56" width="14" height="14" fill="#1a1a2e"/><rect x="904" y="56" width="14" height="14" fill="#1a1a2e"/><rect x="918" y="56" width="14" height="14" fill="#1a1a2e"/><rect x="932" y="56" width="14" height="14" fill="#1a1a2e"/><rect x="848" y="70" width="14" height="14" fill="#1a1a2e"/><rect x="862" y="70" width="14" height="14" fill="#ffe0b8"/><rect x="876" y="70" width="14" height="14" fill="#ffae6a"/><rect x="890" y="70" width="14" height="14" fill="#ffae6a"/><rect x="904" y="70" width="14" height="14" fill="#ffae6a"/><rect x="918" y="70" width="14" height="14" fill="#ffae6a"/><rect x="932" y="70" width="14" height="14" fill="#cc7236"/><rect x="946" y="70" width="14" height="14" fill="#1a1a2e"/><rect x="834" y="84" width="14" height="14" fill="#1a1a2e"/><rect x="848" y="84" width="14" height="14" fill="#ffe0b8"/><rect x="862" y="84" width="14" height="14" fill="#ffae6a"/><rect x="876" y="84" width="14" height="14" fill="#ffae6a"/><rect x="890" y="84" width="14" height="14" fill="#ffae6a"/><rect x="904" y="84" width="14" height="14" fill="#ffae6a"/><rect x="918" y="84" width="14" height="14" fill="#ffae6a"/><rect x="932" y="84" width="14" height="14" fill="#ffae6a"/><rect x="946" y="84" width="14" height="14" fill="#cc7236"/><rect x="960" y="84" width="14" height="14" fill="#1a1a2e"/><rect x="834" y="98" width="14" height="14" fill="#1a1a2e"/><rect x="848" y="98" width="14" height="14" fill="#ffae6a"/><rect x="862" y="98" width="14" height="14" fill="#ffae6a"/><rect x="876" y="98" width="14" height="14" fill="#ffae6a"/><rect x="890" y="98" width="14" height="14" fill="#ffae6a"/><rect x="904" y="98" width="14" height="14" fill="#ffae6a"/><rect x="918" y="98" width="14" height="14" fill="#ffae6a"/><rect x="932" y="98" width="14" height="14" fill="#ffae6a"/><rect x="946" y="98" width="14" height="14" fill="#ffae6a"/><rect x="960" y="98" width="14" height="14" fill="#1a1a2e"/><rect x="834" y="112" width="14" height="14" fill="#1a1a2e"/><rect x="848" y="112" width="14" height="14" fill="#ffae6a"/><rect x="862" y="112" width="14" height="14" fill="#ffae6a"/><rect x="876" y="112" width="14" height="14" fill="#ffae6a"/><rect x="890" y="112" width="14" height="14" fill="#ffae6a"/><rect x="904" y="112" width="14" height="14" fill="#ffae6a"/><rect x="918" y="112" width="14" height="14" fill="#ffae6a"/><rect x="932" y="112" width="14" height="14" fill="#ffae6a"/><rect x="946" y="112" width="14" height="14" fill="#ffae6a"/><rect x="960" y="112" width="14" height="14" fill="#1a1a2e"/><rect x="834" y="126" width="14" height="14" fill="#1a1a2e"/><rect x="848" y="126" width="14" height="14" fill="#ffae6a"/><rect x="862" y="126" width="14" height="14" fill="#ffae6a"/><rect x="876" y="126" width="14" height="14" fill="#ffae6a"/><rect x="890" y="126" width="14" height="14" fill="#ffae6a"/><rect x="904" y="126" width="14" height="14" fill="#ffae6a"/><rect x="918" y="126" width="14" height="14" fill="#ffae6a"/><rect x="932" y="126" width="14" height="14" fill="#ffae6a"/><rect x="946" y="126" width="14" height="14" fill="#ffae6a"/><rect x="960" y="126" width="14" height="14" fill="#1a1a2e"/><rect x="834" y="140" width="14" height="14" fill="#1a1a2e"/><rect x="848" y="140" width="14" height="14" fill="#ffae6a"/><rect x="862" y="140" width="14" height="14" fill="#ffae6a"/><rect x="876" y="140" width="14" height="14" fill="#ffae6a"/><rect x="890" y="140" width="14" height="14" fill="#ffae6a"/><rect x="904" y="140" width="14" height="14" fill="#ffae6a"/><rect x="918" y="140" width="14" height="14" fill="#ffae6a"/><rect x="932" y="140" width="14" height="14" fill="#ffae6a"/><rect x="946" y="140" width="14" height="14" fill="#ffae6a"/><rect x="960" y="140" width="14" height="14" fill="#1a1a2e"/><rect x="834" y="154" width="14" height="14" fill="#1a1a2e"/><rect x="848" y="154" width="14" height="14" fill="#cc7236"/><rect x="862" y="154" width="14" height="14" fill="#ffae6a"/><rect x="876" y="154" width="14" height="14" fill="#ffae6a"/><rect x="890" y="154" width="14" height="14" fill="#ffae6a"/><rect x="904" y="154" width="14" height="14" fill="#ffae6a"/><rect x="918" y="154" width="14" height="14" fill="#ffae6a"/><rect x="932" y="154" width="14" height="14" fill="#ffae6a"/><rect x="946" y="154" width="14" height="14" fill="#cc7236"/><rect x="960" y="154" width="14" height="14" fill="#1a1a2e"/><rect x="848" y="168" width="14" height="14" fill="#1a1a2e"/><rect x="862" y="168" width="14" height="14" fill="#cc7236"/><rect x="876" y="168" width="14" height="14" fill="#ffae6a"/><rect x="890" y="168" width="14" height="14" fill="#ffae6a"/><rect x="904" y="168" width="14" height="14" fill="#ffae6a"/><rect x="918" y="168" width="14" height="14" fill="#ffae6a"/><rect x="932" y="168" width="14" height="14" fill="#cc7236"/><rect x="946" y="168" width="14" height="14" fill="#1a1a2e"/><rect x="862" y="182" width="14" height="14" fill="#1a1a2e"/><rect x="876" y="182" width="14" height="14" fill="#cc7236"/><rect x="890" y="182" width="14" height="14" fill="#cc7236"/><rect x="904" y="182" width="14" height="14" fill="#cc7236"/><rect x="918" y="182" width="14" height="14" fill="#cc7236"/><rect x="932" y="182" width="14" height="14" fill="#1a1a2e"/><rect x="876" y="196" width="14" height="14" fill="#1a1a2e"/><rect x="890" y="196" width="14" height="14" fill="#1a1a2e"/><rect x="904" y="196" width="14" height="14" fill="#1a1a2e"/><rect x="918" y="196" width="14" height="14" fill="#1a1a2e"/><rect x="862" y="98" width="14" height="14" fill="#fffdf5"/><rect x="876" y="98" width="14" height="14" fill="#fffdf5"/><rect x="862" y="112" width="14" height="14" fill="#fffdf5"/><rect x="876" y="112" width="14" height="14" fill="#fffdf5"/><rect x="876" y="112" width="14" height="14" fill="#1a1a2e"/><rect x="918" y="98" width="14" height="14" fill="#fffdf5"/><rect x="932" y="98" width="14" height="14" fill="#fffdf5"/><rect x="918" y="112" width="14" height="14" fill="#fffdf5"/><rect x="932" y="112" width="14" height="14" fill="#fffdf5"/><rect x="918" y="112" width="14" height="14" fill="#1a1a2e"/><rect x="848" y="126" width="14" height="14" fill="#ffb5c5"/><rect x="946" y="126" width="14" height="14" fill="#ffb5c5"/><rect x="890" y="140" width="14" height="14" fill="#1a1a2e"/><rect x="904" y="140" width="14" height="14" fill="#1a1a2e"/><text x="904" y="246.4" text-anchor="middle" font-family="ui-monospace, SFMono-Regular, Menlo, monospace" font-size="14" fill="#555">Excited Dot</text><ellipse cx="1168" cy="217.28" rx="53.76" ry="8.4" fill="rgba(0,0,0,0.22)"/><rect x="1126" y="56" width="14" height="14" fill="#1a1a2e"/><rect x="1140" y="56" width="14" height="14" fill="#1a1a2e"/><rect x="1154" y="56" width="14" height="14" fill="#1a1a2e"/><rect x="1168" y="56" width="14" height="14" fill="#1a1a2e"/><rect x="1182" y="56" width="14" height="14" fill="#1a1a2e"/><rect x="1196" y="56" width="14" height="14" fill="#1a1a2e"/><rect x="1112" y="70" width="14" height="14" fill="#1a1a2e"/><rect x="1126" y="70" width="14" height="14" fill="#ffb8b0"/><rect x="1140" y="70" width="14" height="14" fill="#d95c50"/><rect x="1154" y="70" width="14" height="14" fill="#d95c50"/><rect x="1168" y="70" width="14" height="14" fill="#d95c50"/><rect x="1182" y="70" width="14" height="14" fill="#d95c50"/><rect x="1196" y="70" width="14" height="14" fill="#9a2e24"/><rect x="1210" y="70" width="14" height="14" fill="#1a1a2e"/><rect x="1098" y="84" width="14" height="14" fill="#1a1a2e"/><rect x="1112" y="84" width="14" height="14" fill="#ffb8b0"/><rect x="1126" y="84" width="14" height="14" fill="#d95c50"/><rect x="1140" y="84" width="14" height="14" fill="#d95c50"/><rect x="1154" y="84" width="14" height="14" fill="#d95c50"/><rect x="1168" y="84" width="14" height="14" fill="#d95c50"/><rect x="1182" y="84" width="14" height="14" fill="#d95c50"/><rect x="1196" y="84" width="14" height="14" fill="#d95c50"/><rect x="1210" y="84" width="14" height="14" fill="#9a2e24"/><rect x="1224" y="84" width="14" height="14" fill="#1a1a2e"/><rect x="1098" y="98" width="14" height="14" fill="#1a1a2e"/><rect x="1112" y="98" width="14" height="14" fill="#d95c50"/><rect x="1126" y="98" width="14" height="14" fill="#d95c50"/><rect x="1140" y="98" width="14" height="14" fill="#d95c50"/><rect x="1154" y="98" width="14" height="14" fill="#d95c50"/><rect x="1168" y="98" width="14" height="14" fill="#d95c50"/><rect x="1182" y="98" width="14" height="14" fill="#d95c50"/><rect x="1196" y="98" width="14" height="14" fill="#d95c50"/><rect x="1210" y="98" width="14" height="14" fill="#d95c50"/><rect x="1224" y="98" width="14" height="14" fill="#1a1a2e"/><rect x="1098" y="112" width="14" height="14" fill="#1a1a2e"/><rect x="1112" y="112" width="14" height="14" fill="#d95c50"/><rect x="1126" y="112" width="14" height="14" fill="#d95c50"/><rect x="1140" y="112" width="14" height="14" fill="#d95c50"/><rect x="1154" y="112" width="14" height="14" fill="#d95c50"/><rect x="1168" y="112" width="14" height="14" fill="#d95c50"/><rect x="1182" y="112" width="14" height="14" fill="#d95c50"/><rect x="1196" y="112" width="14" height="14" fill="#d95c50"/><rect x="1210" y="112" width="14" height="14" fill="#d95c50"/><rect x="1224" y="112" width="14" height="14" fill="#1a1a2e"/><rect x="1098" y="126" width="14" height="14" fill="#1a1a2e"/><rect x="1112" y="126" width="14" height="14" fill="#d95c50"/><rect x="1126" y="126" width="14" height="14" fill="#d95c50"/><rect x="1140" y="126" width="14" height="14" fill="#d95c50"/><rect x="1154" y="126" width="14" height="14" fill="#d95c50"/><rect x="1168" y="126" width="14" height="14" fill="#d95c50"/><rect x="1182" y="126" width="14" height="14" fill="#d95c50"/><rect x="1196" y="126" width="14" height="14" fill="#d95c50"/><rect x="1210" y="126" width="14" height="14" fill="#d95c50"/><rect x="1224" y="126" width="14" height="14" fill="#1a1a2e"/><rect x="1098" y="140" width="14" height="14" fill="#1a1a2e"/><rect x="1112" y="140" width="14" height="14" fill="#d95c50"/><rect x="1126" y="140" width="14" height="14" fill="#d95c50"/><rect x="1140" y="140" width="14" height="14" fill="#d95c50"/><rect x="1154" y="140" width="14" height="14" fill="#d95c50"/><rect x="1168" y="140" width="14" height="14" fill="#d95c50"/><rect x="1182" y="140" width="14" height="14" fill="#d95c50"/><rect x="1196" y="140" width="14" height="14" fill="#d95c50"/><rect x="1210" y="140" width="14" height="14" fill="#d95c50"/><rect x="1224" y="140" width="14" height="14" fill="#1a1a2e"/><rect x="1098" y="154" width="14" height="14" fill="#1a1a2e"/><rect x="1112" y="154" width="14" height="14" fill="#9a2e24"/><rect x="1126" y="154" width="14" height="14" fill="#d95c50"/><rect x="1140" y="154" width="14" height="14" fill="#d95c50"/><rect x="1154" y="154" width="14" height="14" fill="#d95c50"/><rect x="1168" y="154" width="14" height="14" fill="#d95c50"/><rect x="1182" y="154" width="14" height="14" fill="#d95c50"/><rect x="1196" y="154" width="14" height="14" fill="#d95c50"/><rect x="1210" y="154" width="14" height="14" fill="#9a2e24"/><rect x="1224" y="154" width="14" height="14" fill="#1a1a2e"/><rect x="1112" y="168" width="14" height="14" fill="#1a1a2e"/><rect x="1126" y="168" width="14" height="14" fill="#9a2e24"/><rect x="1140" y="168" width="14" height="14" fill="#d95c50"/><rect x="1154" y="168" width="14" height="14" fill="#d95c50"/><rect x="1168" y="168" width="14" height="14" fill="#d95c50"/><rect x="1182" y="168" width="14" height="14" fill="#d95c50"/><rect x="1196" y="168" width="14" height="14" fill="#9a2e24"/><rect x="1210" y="168" width="14" height="14" fill="#1a1a2e"/><rect x="1126" y="182" width="14" height="14" fill="#1a1a2e"/><rect x="1140" y="182" width="14" height="14" fill="#9a2e24"/><rect x="1154" y="182" width="14" height="14" fill="#9a2e24"/><rect x="1168" y="182" width="14" height="14" fill="#9a2e24"/><rect x="1182" y="182" width="14" height="14" fill="#9a2e24"/><rect x="1196" y="182" width="14" height="14" fill="#1a1a2e"/><rect x="1140" y="196" width="14" height="14" fill="#1a1a2e"/><rect x="1154" y="196" width="14" height="14" fill="#1a1a2e"/><rect x="1168" y="196" width="14" height="14" fill="#1a1a2e"/><rect x="1182" y="196" width="14" height="14" fill="#1a1a2e"/><rect x="1126" y="98" width="14" height="14" fill="#fffdf5"/><rect x="1140" y="98" width="14" height="14" fill="#fffdf5"/><rect x="1126" y="112" width="14" height="14" fill="#fffdf5"/><rect x="1140" y="112" width="14" height="14" fill="#fffdf5"/><rect x="1140" y="112" width="14" height="14" fill="#1a1a2e"/><rect x="1182" y="98" width="14" height="14" fill="#fffdf5"/><rect x="1196" y="98" width="14" height="14" fill="#fffdf5"/><rect x="1182" y="112" width="14" height="14" fill="#fffdf5"/><rect x="1196" y="112" width="14" height="14" fill="#fffdf5"/><rect x="1182" y="112" width="14" height="14" fill="#1a1a2e"/><rect x="1112" y="126" width="14" height="14" fill="#ffb5c5"/><rect x="1210" y="126" width="14" height="14" fill="#ffb5c5"/><rect x="1154" y="140" width="14" height="14" fill="#1a1a2e"/><rect x="1168" y="140" width="14" height="14" fill="#1a1a2e"/><text x="1168" y="246.4" text-anchor="middle" font-family="ui-monospace, SFMono-Regular, Menlo, monospace" font-size="14" fill="#555">Concerned Dot</text><ellipse cx="1432" cy="217.28" rx="53.76" ry="8.4" fill="rgba(0,0,0,0.22)"/><rect x="1390" y="56" width="14" height="14" fill="#1a1a2e"/><rect x="1404" y="56" width="14" height="14" fill="#1a1a2e"/><rect x="1418" y="56" width="14" height="14" fill="#1a1a2e"/><rect x="1432" y="56" width="14" height="14" fill="#1a1a2e"/><rect x="1446" y="56" width="14" height="14" fill="#1a1a2e"/><rect x="1460" y="56" width="14" height="14" fill="#1a1a2e"/><rect x="1376" y="70" width="14" height="14" fill="#1a1a2e"/><rect x="1390" y="70" width="14" height="14" fill="#ffc8e6"/><rect x="1404" y="70" width="14" height="14" fill="#ff8ec2"/><rect x="1418" y="70" width="14" height="14" fill="#ff8ec2"/><rect x="1432" y="70" width="14" height="14" fill="#ff8ec2"/><rect x="1446" y="70" width="14" height="14" fill="#ff8ec2"/><rect x="1460" y="70" width="14" height="14" fill="#c4548c"/><rect x="1474" y="70" width="14" height="14" fill="#1a1a2e"/><rect x="1362" y="84" width="14" height="14" fill="#1a1a2e"/><rect x="1376" y="84" width="14" height="14" fill="#ffc8e6"/><rect x="1390" y="84" width="14" height="14" fill="#ff8ec2"/><rect x="1404" y="84" width="14" height="14" fill="#ff8ec2"/><rect x="1418" y="84" width="14" height="14" fill="#ff8ec2"/><rect x="1432" y="84" width="14" height="14" fill="#ff8ec2"/><rect x="1446" y="84" width="14" height="14" fill="#ff8ec2"/><rect x="1460" y="84" width="14" height="14" fill="#ff8ec2"/><rect x="1474" y="84" width="14" height="14" fill="#c4548c"/><rect x="1488" y="84" width="14" height="14" fill="#1a1a2e"/><rect x="1362" y="98" width="14" height="14" fill="#1a1a2e"/><rect x="1376" y="98" width="14" height="14" fill="#ff8ec2"/><rect x="1390" y="98" width="14" height="14" fill="#ff8ec2"/><rect x="1404" y="98" width="14" height="14" fill="#ff8ec2"/><rect x="1418" y="98" width="14" height="14" fill="#ff8ec2"/><rect x="1432" y="98" width="14" height="14" fill="#ff8ec2"/><rect x="1446" y="98" width="14" height="14" fill="#ff8ec2"/><rect x="1460" y="98" width="14" height="14" fill="#ff8ec2"/><rect x="1474" y="98" width="14" height="14" fill="#ff8ec2"/><rect x="1488" y="98" width="14" height="14" fill="#1a1a2e"/><rect x="1362" y="112" width="14" height="14" fill="#1a1a2e"/><rect x="1376" y="112" width="14" height="14" fill="#ff8ec2"/><rect x="1390" y="112" width="14" height="14" fill="#ff8ec2"/><rect x="1404" y="112" width="14" height="14" fill="#ff8ec2"/><rect x="1418" y="112" width="14" height="14" fill="#ff8ec2"/><rect x="1432" y="112" width="14" height="14" fill="#ff8ec2"/><rect x="1446" y="112" width="14" height="14" fill="#ff8ec2"/><rect x="1460" y="112" width="14" height="14" fill="#ff8ec2"/><rect x="1474" y="112" width="14" height="14" fill="#ff8ec2"/><rect x="1488" y="112" width="14" height="14" fill="#1a1a2e"/><rect x="1362" y="126" width="14" height="14" fill="#1a1a2e"/><rect x="1376" y="126" width="14" height="14" fill="#ff8ec2"/><rect x="1390" y="126" width="14" height="14" fill="#ff8ec2"/><rect x="1404" y="126" width="14" height="14" fill="#ff8ec2"/><rect x="1418" y="126" width="14" height="14" fill="#ff8ec2"/><rect x="1432" y="126" width="14" height="14" fill="#ff8ec2"/><rect x="1446" y="126" width="14" height="14" fill="#ff8ec2"/><rect x="1460" y="126" width="14" height="14" fill="#ff8ec2"/><rect x="1474" y="126" width="14" height="14" fill="#ff8ec2"/><rect x="1488" y="126" width="14" height="14" fill="#1a1a2e"/><rect x="1362" y="140" width="14" height="14" fill="#1a1a2e"/><rect x="1376" y="140" width="14" height="14" fill="#ff8ec2"/><rect x="1390" y="140" width="14" height="14" fill="#ff8ec2"/><rect x="1404" y="140" width="14" height="14" fill="#ff8ec2"/><rect x="1418" y="140" width="14" height="14" fill="#ff8ec2"/><rect x="1432" y="140" width="14" height="14" fill="#ff8ec2"/><rect x="1446" y="140" width="14" height="14" fill="#ff8ec2"/><rect x="1460" y="140" width="14" height="14" fill="#ff8ec2"/><rect x="1474" y="140" width="14" height="14" fill="#ff8ec2"/><rect x="1488" y="140" width="14" height="14" fill="#1a1a2e"/><rect x="1362" y="154" width="14" height="14" fill="#1a1a2e"/><rect x="1376" y="154" width="14" height="14" fill="#c4548c"/><rect x="1390" y="154" width="14" height="14" fill="#ff8ec2"/><rect x="1404" y="154" width="14" height="14" fill="#ff8ec2"/><rect x="1418" y="154" width="14" height="14" fill="#ff8ec2"/><rect x="1432" y="154" width="14" height="14" fill="#ff8ec2"/><rect x="1446" y="154" width="14" height="14" fill="#ff8ec2"/><rect x="1460" y="154" width="14" height="14" fill="#ff8ec2"/><rect x="1474" y="154" width="14" height="14" fill="#c4548c"/><rect x="1488" y="154" width="14" height="14" fill="#1a1a2e"/><rect x="1376" y="168" width="14" height="14" fill="#1a1a2e"/><rect x="1390" y="168" width="14" height="14" fill="#c4548c"/><rect x="1404" y="168" width="14" height="14" fill="#ff8ec2"/><rect x="1418" y="168" width="14" height="14" fill="#ff8ec2"/><rect x="1432" y="168" width="14" height="14" fill="#ff8ec2"/><rect x="1446" y="168" width="14" height="14" fill="#ff8ec2"/><rect x="1460" y="168" width="14" height="14" fill="#c4548c"/><rect x="1474" y="168" width="14" height="14" fill="#1a1a2e"/><rect x="1390" y="182" width="14" height="14" fill="#1a1a2e"/><rect x="1404" y="182" width="14" height="14" fill="#c4548c"/><rect x="1418" y="182" width="14" height="14" fill="#c4548c"/><rect x="1432" y="182" width="14" height="14" fill="#c4548c"/><rect x="1446" y="182" width="14" height="14" fill="#c4548c"/><rect x="1460" y="182" width="14" height="14" fill="#1a1a2e"/><rect x="1404" y="196" width="14" height="14" fill="#1a1a2e"/><rect x="1418" y="196" width="14" height="14" fill="#1a1a2e"/><rect x="1432" y="196" width="14" height="14" fill="#1a1a2e"/><rect x="1446" y="196" width="14" height="14" fill="#1a1a2e"/><rect x="1390" y="98" width="14" height="14" fill="#fffdf5"/><rect x="1404" y="98" width="14" height="14" fill="#fffdf5"/><rect x="1390" y="112" width="14" height="14" fill="#fffdf5"/><rect x="1404" y="112" width="14" height="14" fill="#fffdf5"/><rect x="1404" y="112" width="14" height="14" fill="#1a1a2e"/><rect x="1446" y="98" width="14" height="14" fill="#fffdf5"/><rect x="1460" y="98" width="14" height="14" fill="#fffdf5"/><rect x="1446" y="112" width="14" height="14" fill="#fffdf5"/><rect x="1460" y="112" width="14" height="14" fill="#fffdf5"/><rect x="1446" y="112" width="14" height="14" fill="#1a1a2e"/><rect x="1376" y="126" width="14" height="14" fill="#ffb5c5"/><rect x="1474" y="126" width="14" height="14" fill="#ffb5c5"/><rect x="1418" y="140" width="14" height="14" fill="#1a1a2e"/><rect x="1432" y="140" width="14" height="14" fill="#1a1a2e"/><text x="1432" y="246.4" text-anchor="middle" font-family="ui-monospace, SFMono-Regular, Menlo, monospace" font-size="14" fill="#555">Playful Dot</text><ellipse cx="1696" cy="217.28" rx="53.76" ry="8.4" fill="rgba(0,0,0,0.22)"/><rect x="1654" y="56" width="14" height="14" fill="#1a1a2e"/><rect x="1668" y="56" width="14" height="14" fill="#1a1a2e"/><rect x="1682" y="56" width="14" height="14" fill="#1a1a2e"/><rect x="1696" y="56" width="14" height="14" fill="#1a1a2e"/><rect x="1710" y="56" width="14" height="14" fill="#1a1a2e"/><rect x="1724" y="56" width="14" height="14" fill="#1a1a2e"/><rect x="1640" y="70" width="14" height="14" fill="#1a1a2e"/><rect x="1654" y="70" width="14" height="14" fill="#ffe6c0"/><rect x="1668" y="70" width="14" height="14" fill="#b892ff"/><rect x="1682" y="70" width="14" height="14" fill="#b892ff"/><rect x="1696" y="70" width="14" height="14" fill="#b892ff"/><rect x="1710" y="70" width="14" height="14" fill="#b892ff"/><rect x="1724" y="70" width="14" height="14" fill="#6a4eb8"/><rect x="1738" y="70" width="14" height="14" fill="#1a1a2e"/><rect x="1626" y="84" width="14" height="14" fill="#1a1a2e"/><rect x="1640" y="84" width="14" height="14" fill="#ffe6c0"/><rect x="1654" y="84" width="14" height="14" fill="#b892ff"/><rect x="1668" y="84" width="14" height="14" fill="#b892ff"/><rect x="1682" y="84" width="14" height="14" fill="#b892ff"/><rect x="1696" y="84" width="14" height="14" fill="#b892ff"/><rect x="1710" y="84" width="14" height="14" fill="#b892ff"/><rect x="1724" y="84" width="14" height="14" fill="#b892ff"/><rect x="1738" y="84" width="14" height="14" fill="#6a4eb8"/><rect x="1752" y="84" width="14" height="14" fill="#1a1a2e"/><rect x="1626" y="98" width="14" height="14" fill="#1a1a2e"/><rect x="1640" y="98" width="14" height="14" fill="#b892ff"/><rect x="1654" y="98" width="14" height="14" fill="#b892ff"/><rect x="1668" y="98" width="14" height="14" fill="#b892ff"/><rect x="1682" y="98" width="14" height="14" fill="#b892ff"/><rect x="1696" y="98" width="14" height="14" fill="#b892ff"/><rect x="1710" y="98" width="14" height="14" fill="#b892ff"/><rect x="1724" y="98" width="14" height="14" fill="#b892ff"/><rect x="1738" y="98" width="14" height="14" fill="#b892ff"/><rect x="1752" y="98" width="14" height="14" fill="#1a1a2e"/><rect x="1626" y="112" width="14" height="14" fill="#1a1a2e"/><rect x="1640" y="112" width="14" height="14" fill="#b892ff"/><rect x="1654" y="112" width="14" height="14" fill="#b892ff"/><rect x="1668" y="112" width="14" height="14" fill="#b892ff"/><rect x="1682" y="112" width="14" height="14" fill="#b892ff"/><rect x="1696" y="112" width="14" height="14" fill="#b892ff"/><rect x="1710" y="112" width="14" height="14" fill="#b892ff"/><rect x="1724" y="112" width="14" height="14" fill="#b892ff"/><rect x="1738" y="112" width="14" height="14" fill="#b892ff"/><rect x="1752" y="112" width="14" height="14" fill="#1a1a2e"/><rect x="1626" y="126" width="14" height="14" fill="#1a1a2e"/><rect x="1640" y="126" width="14" height="14" fill="#b892ff"/><rect x="1654" y="126" width="14" height="14" fill="#b892ff"/><rect x="1668" y="126" width="14" height="14" fill="#b892ff"/><rect x="1682" y="126" width="14" height="14" fill="#b892ff"/><rect x="1696" y="126" width="14" height="14" fill="#b892ff"/><rect x="1710" y="126" width="14" height="14" fill="#b892ff"/><rect x="1724" y="126" width="14" height="14" fill="#b892ff"/><rect x="1738" y="126" width="14" height="14" fill="#b892ff"/><rect x="1752" y="126" width="14" height="14" fill="#1a1a2e"/><rect x="1626" y="140" width="14" height="14" fill="#1a1a2e"/><rect x="1640" y="140" width="14" height="14" fill="#b892ff"/><rect x="1654" y="140" width="14" height="14" fill="#b892ff"/><rect x="1668" y="140" width="14" height="14" fill="#b892ff"/><rect x="1682" y="140" width="14" height="14" fill="#b892ff"/><rect x="1696" y="140" width="14" height="14" fill="#b892ff"/><rect x="1710" y="140" width="14" height="14" fill="#b892ff"/><rect x="1724" y="140" width="14" height="14" fill="#b892ff"/><rect x="1738" y="140" width="14" height="14" fill="#b892ff"/><rect x="1752" y="140" width="14" height="14" fill="#1a1a2e"/><rect x="1626" y="154" width="14" height="14" fill="#1a1a2e"/><rect x="1640" y="154" width="14" height="14" fill="#6a4eb8"/><rect x="1654" y="154" width="14" height="14" fill="#b892ff"/><rect x="1668" y="154" width="14" height="14" fill="#b892ff"/><rect x="1682" y="154" width="14" height="14" fill="#b892ff"/><rect x="1696" y="154" width="14" height="14" fill="#b892ff"/><rect x="1710" y="154" width="14" height="14" fill="#b892ff"/><rect x="1724" y="154" width="14" height="14" fill="#b892ff"/><rect x="1738" y="154" width="14" height="14" fill="#6a4eb8"/><rect x="1752" y="154" width="14" height="14" fill="#1a1a2e"/><rect x="1640" y="168" width="14" height="14" fill="#1a1a2e"/><rect x="1654" y="168" width="14" height="14" fill="#6a4eb8"/><rect x="1668" y="168" width="14" height="14" fill="#b892ff"/><rect x="1682" y="168" width="14" height="14" fill="#b892ff"/><rect x="1696" y="168" width="14" height="14" fill="#b892ff"/><rect x="1710" y="168" width="14" height="14" fill="#b892ff"/><rect x="1724" y="168" width="14" height="14" fill="#6a4eb8"/><rect x="1738" y="168" width="14" height="14" fill="#1a1a2e"/><rect x="1654" y="182" width="14" height="14" fill="#1a1a2e"/><rect x="1668" y="182" width="14" height="14" fill="#6a4eb8"/><rect x="1682" y="182" width="14" height="14" fill="#6a4eb8"/><rect x="1696" y="182" width="14" height="14" fill="#6a4eb8"/><rect x="1710" y="182" width="14" height="14" fill="#6a4eb8"/><rect x="1724" y="182" width="14" height="14" fill="#1a1a2e"/><rect x="1668" y="196" width="14" height="14" fill="#1a1a2e"/><rect x="1682" y="196" width="14" height="14" fill="#1a1a2e"/><rect x="1696" y="196" width="14" height="14" fill="#1a1a2e"/><rect x="1710" y="196" width="14" height="14" fill="#1a1a2e"/><rect x="1654" y="98" width="14" height="14" fill="#fffdf5"/><rect x="1668" y="98" width="14" height="14" fill="#fffdf5"/><rect x="1654" y="112" width="14" height="14" fill="#fffdf5"/><rect x="1668" y="112" width="14" height="14" fill="#fffdf5"/><rect x="1668" y="112" width="14" height="14" fill="#1a1a2e"/><rect x="1710" y="98" width="14" height="14" fill="#fffdf5"/><rect x="1724" y="98" width="14" height="14" fill="#fffdf5"/><rect x="1710" y="112" width="14" height="14" fill="#fffdf5"/><rect x="1724" y="112" width="14" height="14" fill="#fffdf5"/><rect x="1710" y="112" width="14" height="14" fill="#1a1a2e"/><rect x="1640" y="126" width="14" height="14" fill="#ffb5c5"/><rect x="1738" y="126" width="14" height="14" fill="#ffb5c5"/><rect x="1682" y="140" width="14" height="14" fill="#1a1a2e"/><rect x="1696" y="140" width="14" height="14" fill="#1a1a2e"/><text x="1696" y="246.4" text-anchor="middle" font-family="ui-monospace, SFMono-Regular, Menlo, monospace" font-size="14" fill="#555">Rainbow Dot</text></svg>