<svg xmlns="http://www.w3.org/2000/svg" viewBox="0 0 256 288" width="256" height="288" shape-rendering="crispEdges"><defs><linearGradient id="bg" x1="0" y1="0" x2="0" y2="1"><stop offset="0%" stop-color="#fff"/><stop offset="100%" stop-color="#f0f2f8"/></linearGradient></defs><rect width="256" height="288" rx="24" fill="url(#bg)"/><ellipse cx="128" cy="248.32" rx="61.44" ry="9.6" fill="rgba(0,0,0,0.22)"/><rect x="80" y="64" width="16" height="16" fill="#1a1a2e"/><rect x="96" y="64" width="16" height="16" fill="#1a1a2e"/><rect x="112" y="64" width="16" height="16" fill="#1a1a2e"/><rect x="128" y="64" width="16" height="16" fill="#1a1a2e"/><rect x="144" y="64" width="16" height="16" fill="#1a1a2e"/><rect x="160" y="64" width="16" height="16" fill="#1a1a2e"/><rect x="64" y="80" width="16" height="16" fill="#1a1a2e"/><rect x="80" y="80" width="16" height="16" fill="#ffe6c0"/><rect x="96" y="80" width="16" height="16" fill="#b892ff"/><rect x="112" y="80" width="16" height="16" fill="#b892ff"/><rect x="128" y="80" width="16" height="16" fill="#b892ff"/><rect x="144" y="80" width="16" height="16" fill="#b892ff"/><rect x="160" y="80" width="16" height="16" fill="#6a4eb8"/><rect x="176" y="80" width="16" height="16" fill="#1a1a2e"/><rect x="48" y="96" width="16" height="16" fill="#1a1a2e"/><rect x="64" y="96" width="16" height="16" fill="#ffe6c0"/><rect x="80" y="96" width="16" height="16" fill="#b892ff"/><rect x="96" y="96" width="16" height="16" fill="#b892ff"/><rect x="112" y="96" width="16" height="16" fill="#b892ff"/><rect x="128" y="96" width="16" height="16" fill="#b892ff"/><rect x="144" y="96" width="16" height="16" fill="#b892ff"/><rect x="160" y="96" width="16" height="16" fill="#b892ff"/><rect x="176" y="96" width="16" height="16" fill="#6a4eb8"/><rect x="192" y="96" width="16" height="16" fill="#1a1a2e"/><rect x="48" y="112" width="16" height="16" fill="#1a1a2e"/><rect x="64" y="112" width="16" height="16" fill="#b892ff"/><rect x="80" y="112" width="16" height="16" fill="#b892ff"/><rect x="96" y="112" width="16" height="16" fill="#b892ff"/><rect x="112" y="112" width="16" height="16" fill="#b892ff"/><rect x="128" y="112" width="16" height="16" fill="#b892ff"/><rect x="144" y="112" width="16" height="16" fill="#b892ff"/><rect x="160" y="112" width="16" height="16" fill="#b892ff"/><rect x="176" y="112" width="16" height="16" fill="#b892ff"/><rect x="192" y="112" width="16" height="16" fill="#1a1a2e"/><rect x="48" y="128" width="16" height="16" fill="#1a1a2e"/><rect x="64" y="128" width="16" height="16" fill="#b892ff"/><rect x="80" y="128" width="16" height="16" fill="#b892ff"/><rect x="96" y="128" width="16" height="16" fill="#b892ff"/><rect x="112" y="128" width="16" height="16" fill="#b892ff"/><rect x="128" y="128" width="16" height="16" fill="#b892ff"/><rect x="144" y="128" width="16" height="16" fill="#b892ff"/><rect x="160" y="128" width="16" height="16" fill="#b892ff"/><rect x="176" y="128" width="16" height="16" fill="#b892ff"/><rect x="192" y="128" width="16" height="16" fill="#1a1a2e"/><rect x="48" y="144" width="16" height="16" fill="#1a1a2e"/><rect x="64" y="144" width="16" height="16" fill="#b892ff"/><rect x="80" y="144" width="16" height="16" fill="#b892ff"/><rect x="96" y="144" width="16" height="16" fill="#b892ff"/><rect x="112" y="144" width="16" height="16" fill="#b892ff"/><rect x="128" y="144" width="16" height="16" fill="#b892ff"/><rect x="144" y="144" width="16" height="16" fill="#b892ff"/><rect x="160" y="144" width="16" height="16" fill="#b892ff"/><rect x="176" y="144" width="16" height="16" fill="#b892ff"/><rect x="192" y="144" width="16" height="16" fill="#1a1a2e"/><rect x="48" y="160" width="16" height="16" fill="#1a1a2e"/><rect x="64" y="160" width="16" height="16" fill="#b892ff"/><rect x="80" y="160" width="16" height="16" fill="#b892ff"/><rect x="96" y="160" width="16" height="16" fill="#b892ff"/><rect x="112" y="160" width="16" height="16" fill="#b892ff"/><rect x="128" y="160" width="16" height="16" fill="#b892ff"/><rect x="144" y="160" width="16" height="16" fill="#b892ff"/><rect x="160" y="160" width="16" height="16" fill="#b892ff"/><rect x="176" y="160" width="16" height="16" fill="#b892ff"/><rect x="192" y="160" width="16" height="16" fill="#1a1a2e"/><rect x="48" y="176" width="16" height="16" fill="#1a1a2e"/><rect x="64" y="176" width="16" height="16" fill="#6a4eb8"/><rect x="80" y="176" width="16" height="16" fill="#b892ff"/><rect x="96" y="176" width="16" height="16" fill="#b892ff"/><rect x="112" y="176" width="16" height="16" fill="#b892ff"/><rect x="128" y="176" width="16" height="16" fill="#b892ff"/><rect x="144" y="176" width="16" height="16" fill="#b892ff"/><rect x="160" y="176" width="16" height="16" fill="#b892ff"/><rect x="176" y="176" width="16" height="16" fill="#6a4eb8"/><rect x="192" y="176" width="16" height="16" fill="#1a1a2e"/><rect x="64" y="192" width="16" height="16" fill="#1a1a2e"/><rect x="80" y="192" width="16" height="16" fill="#6a4eb8"/><rect x="96" y="192" width="16" height="16" fill="#b892ff"/><rect x="112" y="192" width="16" height="16" fill="#b892ff"/><rect x="128" y="192" width="16" height="16" fill="#b892ff"/><rect x="144" y="192" width="16" height="16" fill="#b892ff"/><rect x="160" y="192" width="16" height="16" fill="#6a4eb8"/><rect x="176" y="192" width="16" height="16" fill="#1a1a2e"/><rect x="80" y="208" width="16" height="16" fill="#1a1a2e"/><rect x="96" y="208" width="16" height="16" fill="#6a4eb8"/><rect x="112" y="208" width="16" height="16" fill="#6a4eb8"/><rect x="128" y="208" width="16" height="16" fill="#6a4eb8"/><rect x="144" y="208" width="16" height="16" fill="#6a4eb8"/><rect x="160" y="208" width="16" height="16" fill="#1a1a2e"/><rect x="96" y="224" width="16" height="16" fill="#1a1a2e"/><rect x="112" y="224" width="16" height="16" fill="#1a1a2e"/><rect x="128" y="224" width="16" height="16" fill="#1a1a2e"/><rect x="144" y="224" width="16" height="16" fill="#1a1a2e"/><rect x="80" y="112" width="16" height="16" fill="#fffdf5"/><rect x="96" y="112" width="16" height="16" fill="#fffdf5"/><rect x="80" y="128" width="16" height="16" fill="#fffdf5"/><rect x="96" y="128" width="16" height="16" fill="#fffdf5"/><rect x="96" y="128" width="16" height="16" fill="#1a1a2e"/><rect x="144" y="112" width="16" height="16" fill="#fffdf5"/><rect x="160" y="112" width="16" height="16" fill="#fffdf5"/><rect x="144" y="128" width="16" height="16" fill="#fffdf5"/><rect x="160" y="128" width="16" height="16" fill="#fffdf5"/><rect x="144" y="128" width="16" height="16" fill="#1a1a2e"/><rect x="64" y="144" width="16" height="16" fill="#ffb5c5"/><rect x="176" y="144" width="16" height="16" fill="#ffb5c5"/><rect x="112" y="160" width="16" height="16" fill="#1a1a2e"/><rect x="128" y="160" width="16" height="16" fill="#1a1a2e"/></svg>